# xmcd
#
# Track frame offsets: 
#        151
#        20510
#        38143
#        61359
#        86081
#        106082
#        111663
#        148395
#        185356
#        205139
#        224756
#        237420
#        258652
#
# Disc length: 3878 seconds
#
# Revision: 4
# Processed by: cddbd v1.5.2PL0 Copyright (c) Steve Scherf et al.
# Submitted via: ExactAudioCopy v0.95b4
#
DISCID=cc0f240d
DTITLE=Zondervan: Dramatized OT-19 of 48 - NIV Dramatized Audio Bible 
DTITLE=(2 Samuel 20 - 1 Kings 7)
DYEAR=2001
DGENRE=Other
TTITLE0=2 Samuel 20
TTITLE1=2 Samuel 21
TTITLE2=2 Samuel 22
TTITLE3=2 Samuel 23
TTITLE4=2 Samuel 24
TTITLE5=Intro to 1 Kings
TTITLE6=1 Kings 01
TTITLE7=1 Kings 02
TTITLE8=1 Kings 03
TTITLE9=1 Kings 04
TTITLE10=1 Kings 05
TTITLE11=1 Kings 06
TTITLE12=1 Kings 07
EXTD=The HOLY BIBLE, NEW INTERNATIONAL VERSION ® \n©2001 Zondervan\nCo
EXTD=pyright © 1973, 1978, 1984 \nby International Bible Society\nUsed
EXTD=by permission of Zondervan. All rights reserved.\nThe "NIV" and 
EXTD="New International Version" trademarks are \nregistered in the Un
EXTD=ited States Patent and Trademark Office\nby International Bible S
EXTD=ociety. Use of either trademark \nrequires the permission of Inte
EXTD=rnational Bible Society.
EXTT0=
EXTT1=
EXTT2=
EXTT3=
EXTT4=
EXTT5=
EXTT6=
EXTT7=
EXTT8=
EXTT9=
EXTT10=
EXTT11=
EXTT12=
PLAYORDER=
